PathFileType	4	(X/Y/Z)	Patient4_TMGait_0pt6_02_right_34.trc.trc
DataRate	CameraRate	NumFrames	NumMarkers	Units	OrigDataRate	OrigDataStartFrame	OrigNumFrames
81.871345029240	81.871345029240	4	33	mm	81.871345029240	36	       141
Frame#	Time	Sacral			L.Shoulder			Chest			R.Shoulder			Neck			R.ASIS			L.ASIS			R.Thigh.Superior			R.Thigh.Lateral			R.Thigh.Inferior			R.Patella			L.Thigh.Superior			L.Thigh.Lateral			L.Thigh.Inferior			L.Patella			L.Shank.Superior			L.Shank.Lateral			L.Shank.Inferior			R.Shank.Superior			R.Shank.Lateral			R.Shank.Inferior			R.Heel			R.Midfoot.Superior			R.Midfoot.Lateral			R.Toe			L.Heel			L.Midfoot.Lateral			L.Midfoot.Superior			L.Toe			L.Elbow			L.Wrist			R.Elbow			R.Wrist			
		X1	Y1	Z1	X2	Y2	Z2	X3	Y3	Z3	X4	Y4	Z4	X5	Y5	Z5	X6	Y6	Z6	X7	Y7	Z7	X8	Y8	Z8	X9	Y9	Z9	X10	Y10	Z10	X11	Y11	Z11	X12	Y12	Z12	X13	Y13	Z13	X14	Y14	Z14	X15	Y15	Z15	X16	Y16	Z16	X17	Y17	Z17	X18	Y18	Z18	X19	Y19	Z19	X20	Y20	Z20	X21	Y21	Z21	X22	Y22	Z22	X23	Y23	Z23	X24	Y24	Z24	X25	Y25	Z25	X26	Y26	Z26	X27	Y27	Z27	X28	Y28	Z28	X29	Y29	Z29	X30	Y30	Z30	X31	Y31	Z31	X32	Y32	Z32	X33	Y33	Z33	

36	41.327500000000	809.409960154451	1002.847105880799	471.425479459199	995.028783235678	1430.212920797965	288.139675982952	1093.281566351976	1357.471912737190	449.197337769771	1009.085480237447	1435.299663620771	620.079120740459	990.831593706047	1489.651258416082	439.527539665277	1038.534357720250	935.401739645842	585.441973322538	1024.758541405285	960.099896596306	311.072038482386	1101.600640708532	749.678247371688	552.355372884345	1035.144929105206	632.627345181326	614.555581370637	1118.886984351505	589.277454418117	534.453673257128	1131.937953982544	498.591210333307	542.592103174030	1035.735830424577	730.850940235048	327.957544217096	927.142524738772	629.098889653943	268.028154052545	1004.119306352712	534.284074031925	319.421573445383	988.949237572926	452.965758309259	318.435220121385	923.990069239193	398.159346667110	315.642191630134	785.324119437731	345.243076531736	273.441830876244	782.346353756440	216.806239946505	330.988954151226	1104.901657844602	408.212846157265	549.888367355274	1036.829355374543	301.969882255675	610.548890501406	1082.991595591691	208.343224816973	549.157490201134	955.632292036203	42.673340089059	517.494140447439	1124.789011947800	98.367348934161	555.899641298953	1037.137851276198	37.280677607679	594.417312058974	1245.437562016224	45.306479413645	588.088642828255	599.348946764768	130.108934451239	377.560565795722	659.251857011750	90.353331509077	297.054154617952	761.342941262907	114.780153632952	313.662259083751	853.124893007386	32.870968799819	288.192484286132	1019.561464668716	1088.594157937527	150.901751325711	1272.285428925966	1043.667330600061	156.826030076178	882.562507555567	1115.695130167782	740.202920764577	875.006788644920	853.493330852251	730.658913829333	
37	41.339714285714	810.079896935076	1004.385846858316	475.074843918179	994.366308309906	1431.840845459926	290.759728165367	1093.897347949102	1358.962986058758	450.971662706510	1011.022151129741	1436.538715231035	622.491811845213	991.159725486697	1491.026880557808	442.269792062619	1039.574800289233	936.669237023415	587.561871938484	1023.988535923317	961.352013196868	313.082506864603	1099.980205625739	748.705459913559	555.567983725980	1031.046221718325	632.806263624213	616.697642929999	1114.268386031318	588.432570118038	536.634152212816	1125.805614534517	497.975251027883	544.169649386264	1040.812685307983	733.522902709543	330.315531458638	936.438797799004	628.985079177265	269.679411976837	1016.450832164983	535.831510672411	321.077682994385	1002.243926678931	453.123083925796	319.213742067156	934.929485884446	398.741725579118	316.549104780237	794.326100154013	351.077044856117	274.340496134193	786.939938370649	222.700558798872	331.274069680098	1098.566078656205	407.953887959969	551.350612001113	1030.158031484702	301.753341318788	611.533942289949	1076.119796910230	208.202360853678	549.833274065960	948.443258099696	42.623202054422	517.640535584439	1117.968909280854	98.110094708379	556.741451180714	1029.904673694395	37.240253131702	594.570741529508	1238.235078432263	45.172600105458	588.351846159867	600.802705183051	145.721464276656	377.440631742001	658.276495407987	102.271696443060	296.991703313429	761.665196187111	120.057466516619	313.670376653672	847.090999382755	31.839640965933	288.342428886927	1014.085557851947	1088.737226986650	155.508701526194	1265.203307241673	1033.133830351512	159.357854647728	891.233662316320	1114.237072122396	744.490865917712	893.869803963422	852.063110369209	733.246461266470	
38	41.351928571429	810.483432732667	1005.884790622286	478.627515327706	993.479945802184	1433.316009446661	293.275354645339	1094.429644385143	1360.227123307533	452.531004208414	1013.072063096043	1437.545583437458	624.786980935478	991.432627996420	1492.241902135856	444.916670668740	1040.365050214074	937.767553171900	589.526287805024	1023.000498378667	962.417127773521	314.951949004991	1097.987433184959	747.626006091415	558.685046172972	1026.634548064749	632.939231076199	618.772236216115	1109.264290458408	587.561847879052	538.683993270618	1119.284914292993	497.380645506664	545.644545987145	1045.907592644194	736.450285765594	332.833659807669	946.182072489270	629.127614827408	271.312807381349	1029.095310097911	537.871311079743	323.047781045215	1016.040724737788	453.819153236690	320.455976943480	946.601266821392	399.696427390138	317.723008717303	804.360490314350	357.142900416138	275.283086224884	792.560245385198	229.036767871182	331.780587185560	1091.939123032606	407.712066187159	552.740685064075	1023.271864899734	301.519402960364	612.477682492143	1069.109983026335	208.073980134346	550.481625048457	941.207158463035	42.566877067303	517.768538081562	1110.972007702159	97.838682541146	557.350641547007	1022.626238033111	37.183778696376	594.703321220051	1230.992343993746	44.974188521972	588.574564701758	603.721833672515	161.785245864478	377.427354307515	658.715925607910	114.938269631290	297.000859731904	763.090215283249	126.073852336866	313.905114022168	842.034647019697	31.069386690662	288.496289663507	1008.585632760042	1088.802846935542	159.988802192939	1257.407291295720	1021.525909515605	161.872147724013	900.269668999277	1112.727699404149	748.816251811014	913.568677334752	850.979674334758	735.814282312697	
39	41.364142857143	810.619109471951	1007.312158763633	482.053734474250	992.379477853405	1434.613002013007	295.670593768713	1094.867476592862	1361.238715630286	453.869293808429	1015.207497173288	1438.303750430965	626.949772358719	991.669040391565	1493.282402887672	447.441654895423	1040.894044764786	938.689916339790	591.340904573200	1021.899233214496	963.338471769441	316.673498147841	1095.675689942449	746.511879570045	561.588850790338	1022.074533918937	633.059509008956	620.768555533917	1104.002670626297	586.699197535088	540.564945458819	1112.517429495737	496.826496337922	547.012046973919	1050.891812329291	739.654655713743	335.525567158986	956.180291886834	629.631598168853	272.915862994280	1041.813188211924	540.476020135575	325.280520669744	1030.126463878880	455.137534964317	322.067779687310	958.830787171688	401.085996790343	319.098225535283	815.246467770367	363.346894299747	276.263941639066	799.195417318572	235.660115880631	332.473108823608	1085.147304375415	407.491144872311	554.046081956987	1016.280244607843	301.289497032349	613.392412495163	1062.016485697797	207.958870757849	551.098204672805	933.921839305155	42.517206195411	517.889308564626	1103.821620681986	97.584085864554	557.758979941268	1015.303872330269	37.121714275114	594.824926223943	1223.711010347173	44.725404409935	588.761459651994	608.134822206793	177.704682905993	377.531560994876	660.726526386133	127.865440516532	297.090562836423	765.774467860186	132.657851605391	314.326609508183	838.396753685738	30.752234050607	288.642508312622	1003.127466705075	1088.752804867136	164.326508185221	1248.812913225979	1008.908838571406	164.377612024475	909.704147364074	1111.129471962101	753.101479671459	934.017343924838	850.261388409495	738.308824454643	
